<svg width="55" height="55" xmlns="http://www.w3.org/2000/svg">

 <g>
  <title>Layer 1</title>
  <g id="svg_1" data-name="029-blend">
   <path id="svg_2" fill="#0051bd" d="m25.58003,27.609l-23.875,0a1.716,1.716 0 0 1 -1.705,-1.726l0,-24.158a1.716,1.716 0 0 1 1.705,-1.725l23.875,0a1.716,1.716 0 0 1 1.705,1.725l0,24.158a1.716,1.716 0 0 1 -1.705,1.726zm0,0" data-name="Path 78"/>
   <path id="svg_3" fill="#00eccf" d="m35.23403,39.746l-16.113,0a4.84,4.84 0 0 1 -4.834,-4.834l0,-16.113a4.84,4.84 0 0 1 4.834,-4.834l16.113,0a4.84,4.84 0 0 1 4.834,4.834l0,16.113a4.84,4.84 0 0 1 -4.834,4.834zm0,0" data-name="Path 79"/>
   <path id="svg_4" fill="#00cab1" d="m35.23403,13.965l-7.949,0l0,25.781l7.949,0a4.84,4.84 0 0 0 4.834,-4.834l0,-16.113a4.84,4.84 0 0 0 -4.834,-4.834zm0,0" data-name="Path 80"/>
   <path id="svg_5" fill="#d11372" d="m42.11003,55a12.891,12.891 0 1 1 12.891,-12.891a12.905,12.905 0 0 1 -12.891,12.891zm0,0" data-name="Path 81"/>
  </g>
 </g>
</svg>